<?xml version="1.0" standalone="no"?>
<!DOCTYPE svg PUBLIC "-//W3C//DTD SVG 20010904//EN"
 "http://www.w3.org/TR/2001/REC-SVG-20010904/DTD/svg10.dtd">
<svg version="1.0" xmlns="http://www.w3.org/2000/svg"
 width="500.000000pt" height="500.000000pt" viewBox="0 0 500.000000 500.000000"
 preserveAspectRatio="xMidYMid meet">

<g transform="translate(0.000000,500.000000) scale(0.100000,-0.100000)"
fill="#000000" stroke="none">
<path d="M2800 3612 c0 -10 -22 -85 -50 -167 -46 -138 -49 -150 -35 -172 21
-31 65 -32 65 -1 0 27 62 218 70 218 4 0 17 -48 29 -107 35 -166 62 -213 120
-213 15 0 21 6 21 23 0 13 20 83 45 157 50 150 54 175 26 190 -30 15 -51 12
-51 -8 0 -10 -17 -69 -39 -132 -31 -92 -40 -110 -45 -90 -3 14 -17 75 -31 135
-14 61 -30 122 -36 136 -17 42 -89 67 -89 31z"/>
<path d="M1999 3566 c-70 -19 -142 -64 -134 -84 4 -10 29 -73 56 -141 26 -68
55 -131 64 -140 44 -44 189 9 232 85 37 64 28 152 -24 222 -43 57 -115 79
-194 58z m97 -63 c29 -19 59 -73 69 -124 9 -49 -15 -103 -55 -124 -60 -31 -69
-22 -118 110 l-44 119 22 18 c28 23 93 23 126 1z"/>
<path d="M3390 3329 c0 -7 -40 -55 -88 -108 -91 -99 -112 -128 -112 -156 0
-20 125 -152 151 -160 23 -8 59 11 59 30 0 8 -4 15 -9 15 -19 0 -121 92 -121
108 0 9 14 32 31 51 l31 33 48 -47 c32 -31 54 -46 64 -42 28 11 17 45 -29 90
l-45 43 29 28 30 29 43 -38 c24 -20 53 -49 65 -64 18 -21 26 -24 40 -15 9 6
19 16 21 24 3 7 -37 53 -87 101 -86 83 -121 105 -121 78z"/>
<path d="M1472 3233 c-7 -2 -16 -12 -21 -22 -8 -13 12 -39 98 -127 58 -61 117
-116 129 -123 28 -15 52 -4 115 57 49 48 59 80 32 102 -10 8 -15 9 -15 2 0
-18 -59 -80 -82 -88 -18 -5 -39 12 -122 100 -98 103 -107 110 -134 99z"/>
<path d="M1232 2918 c-20 -20 -14 -55 11 -62 12 -3 77 -37 145 -76 125 -71
149 -79 170 -58 17 17 15 58 -3 58 -8 0 -74 34 -147 75 -136 77 -155 84 -176
63z"/>
<path d="M3676 2847 c-19 -19 -24 -37 -30 -120 -8 -115 -11 -125 -42 -133 -29
-7 -52 10 -70 52 -19 46 -6 81 29 75 4 0 7 10 7 23 0 53 -65 62 -89 12 -11
-23 -11 -39 -2 -81 23 -104 96 -168 167 -145 47 16 62 49 70 159 10 126 34
151 82 81 27 -41 28 -55 2 -77 -23 -20 -26 -43 -8 -61 31 -31 78 6 78 63 0 44
-43 129 -78 153 -40 29 -87 28 -116 -1z"/>
<path d="M2281 2700 c-13 -37 5 -41 19 -4 12 31 12 34 1 34 -5 0 -14 -13 -20
-30z"/>
<path d="M2236 2643 c6 -79 -20 -194 -81 -358 -38 -102 -117 -268 -161 -337
l-24 -38 162 2 c90 1 139 3 110 5 -46 4 -53 7 -47 21 15 40 55 186 55 202 0
10 3 26 7 36 4 10 13 -16 24 -71 10 -48 28 -112 40 -142 l21 -53 284 0 c156 0
284 4 284 9 0 5 -7 14 -15 21 -23 19 -98 138 -138 216 l-36 71 45 66 c24 37
44 71 44 77 0 5 -13 10 -30 10 -16 0 -30 2 -30 6 0 3 18 32 40 64 22 32 40 61
40 64 0 4 -11 6 -25 6 -14 0 -25 5 -25 10 0 9 69 120 75 120 4 0 75 -118 75
-124 0 -3 -11 -6 -25 -6 -14 0 -25 -2 -25 -5 0 -2 18 -33 40 -67 l40 -63 -30
-3 c-17 -2 -30 -7 -30 -13 0 -5 20 -40 45 -79 25 -39 45 -74 45 -80 0 -5 -21
-11 -47 -13 -40 -3 -36 -4 20 -5 52 -2 66 1 61 11 -4 6 -25 38 -46 69 -55 82
-56 88 -19 88 17 0 31 2 31 5 0 3 -18 34 -40 69 -22 35 -40 66 -40 70 0 3 11
6 25 6 14 0 25 3 25 7 0 4 -23 42 -52 86 l-52 79 -21 -26 c-11 -14 -37 -53
-58 -86 l-37 -60 30 0 c16 0 30 -2 30 -5 0 -2 -18 -32 -40 -66 -22 -34 -40
-66 -40 -71 0 -4 14 -8 30 -8 17 0 30 -3 30 -6 0 -16 -63 -95 -70 -87 -13 12
-50 153 -50 189 0 18 8 38 20 49 22 20 16 43 -7 24 -12 -10 -16 -10 -24 2 -6
10 -9 7 -9 -13 0 -34 -1 -34 -123 -3 -162 41 -254 96 -263 157 -11 64 -23 42
-18 -29z m190 -124 c33 -11 93 -26 134 -33 70 -12 75 -14 82 -42 3 -16 14 -60
23 -99 21 -88 109 -271 169 -353 25 -34 46 -64 46 -67 0 -3 -61 -5 -135 -5
l-134 0 -34 30 c-72 63 -173 232 -232 388 -25 67 -75 236 -75 254 0 4 22 -6
49 -22 27 -17 75 -39 107 -51z m-131 -84 c54 -181 158 -383 236 -462 21 -21
38 -41 39 -45 0 -5 -45 -8 -100 -8 -66 0 -100 4 -100 11 0 6 12 32 27 59 l26
47 -27 29 c-41 43 -92 141 -110 207 -24 97 -28 93 -45 -60 -13 -112 -43 -231
-67 -269 -15 -22 -23 -24 -90 -24 -41 0 -74 3 -74 8 0 4 30 64 66 135 72 141
132 300 159 422 20 89 18 91 60 -50z m14 -273 c11 -22 36 -60 55 -85 l35 -46
-22 -40 c-12 -23 -25 -41 -29 -41 -10 0 -46 122 -56 193 -5 31 -7 57 -6 57 2
0 12 -17 23 -38z"/>
<path d="M1082 2598 c-7 -7 -12 -22 -12 -35 0 -17 6 -23 23 -23 12 0 75 -18
140 -39 112 -37 145 -51 118 -51 -42 0 -267 -33 -283 -41 -23 -13 -24 -61 0
-81 9 -8 72 -37 139 -63 68 -27 121 -50 119 -52 -2 -2 -64 -9 -137 -14 -146
-12 -172 -22 -167 -68 2 -21 8 -25 28 -23 14 2 94 11 178 21 164 20 185 28
185 75 0 40 -16 51 -134 98 -60 24 -109 46 -109 49 0 3 53 13 117 22 127 18
153 32 153 78 0 37 -16 47 -179 108 -141 54 -160 58 -179 39z"/>
<path d="M2851 2480 c-1 -3 -3 -43 -4 -90 -2 -79 -3 -85 -22 -81 -19 3 -19 2
-3 -16 10 -10 19 -34 20 -53 3 -33 1 -35 -32 -41 l-35 -6 31 -2 c36 -1 45 -20
40 -84 -2 -21 1 -40 6 -43 4 -3 8 66 8 153 0 121 4 165 15 187 19 35 19 40 1
33 -10 -4 -16 3 -19 21 -2 15 -5 25 -6 22z"/>
<path d="M3922 2378 c-6 -6 -12 -33 -12 -59 l0 -46 -142 -6 c-79 -3 -151 -8
-160 -12 -12 -5 -18 -18 -18 -39 0 -37 8 -50 24 -37 6 5 75 11 154 14 l142 5
0 -54 c0 -59 16 -78 46 -53 13 10 14 35 10 153 -5 144 -12 166 -44 134z"/>
<path d="M3920 1906 c-15 -41 -10 -56 6 -17 8 18 13 36 10 39 -3 2 -10 -7 -16
-22z"/>
<path d="M1140 1910 c1 -8 8 -26 16 -40 l15 -25 -6 30 c-7 33 -25 59 -25 35z"/>
<path d="M3960 1900 c-6 -11 -8 -20 -6 -20 3 0 10 9 16 20 6 11 8 20 6 20 -3
0 -10 -9 -16 -20z"/>
<path d="M1110 1890 c6 -11 13 -20 16 -20 2 0 0 9 -6 20 -6 11 -13 20 -16 20
-2 0 0 -9 6 -20z"/>
<path d="M1235 1879 c11 -50 27 -86 32 -72 6 16 -15 91 -28 99 -8 4 -9 -4 -4
-27z"/>
<path d="M3870 1870 c-6 -23 -9 -44 -6 -47 2 -3 10 14 16 37 6 23 9 44 6 47
-2 3 -10 -14 -16 -37z"/>
<path d="M1191 1893 c-1 -18 19 -67 25 -61 3 3 -2 21 -10 39 -8 19 -15 29 -15
22z"/>
<path d="M3828 1885 c-4 -11 -10 -38 -13 -60 l-6 -40 16 28 c9 15 15 42 13 60
-3 26 -5 28 -10 12z"/>
<path d="M1301 1824 c5 -26 12 -50 15 -53 10 -9 -6 83 -15 92 -5 5 -5 -13 0
-39z"/>
<path d="M3776 1855 c-3 -9 -5 -31 -5 -48 1 -27 3 -24 9 13 8 48 6 61 -4 35z"/>
<path d="M3978 1833 c6 -2 18 -2 25 0 6 3 1 5 -13 5 -14 0 -19 -2 -12 -5z"/>
<path d="M1078 1823 c7 -3 16 -2 19 1 4 3 -2 6 -13 5 -11 0 -14 -3 -6 -6z"/>
<path d="M1347 1795 c7 -49 13 -58 13 -19 0 16 -5 36 -10 44 -6 10 -7 2 -3
-25z"/>
<path d="M1120 1805 c-31 -12 -32 -14 -10 -14 14 0 36 6 50 14 31 18 7 18 -40
0z"/>
<path d="M3726 1792 c-4 -18 -5 -36 -2 -39 11 -12 17 5 14 39 l-3 33 -9 -33z"/>
<path d="M3925 1810 c11 -5 31 -9 45 -9 23 0 23 1 5 9 -11 5 -31 9 -45 9 -23
0 -23 -1 -5 -9z"/>
<path d="M1155 1775 c-32 -10 -35 -13 -15 -14 14 0 39 6 55 14 38 17 12 18
-40 0z"/>
<path d="M3885 1780 c11 -5 34 -8 50 -8 29 0 29 0 5 8 -14 4 -36 8 -50 8 -23
1 -23 0 -5 -8z"/>
<path d="M1386 1755 c8 -37 14 -45 14 -19 0 10 -5 26 -10 34 -8 11 -9 7 -4
-15z"/>
<path d="M1187 1745 c-21 -7 -42 -16 -45 -20 -10 -11 67 4 103 20 29 13 29 13
5 14 -14 0 -42 -6 -63 -14z"/>
<path d="M3840 1745 c19 -7 51 -13 70 -13 l35 0 -40 13 c-22 8 -53 13 -70 13
l-30 0 35 -13z"/>
<path d="M3692 1730 c0 -14 2 -19 5 -12 2 6 2 18 0 25 -3 6 -5 1 -5 -13z"/>
<path d="M1260 1715 c-23 -9 -28 -14 -15 -14 11 0 34 6 50 14 39 17 11 18 -35
0z"/>
<path d="M3790 1710 c8 -5 29 -9 45 -9 29 1 29 1 5 9 -14 4 -34 8 -45 9 -16 1
-17 -1 -5 -9z"/>
<path d="M1315 1690 l-20 -9 20 0 c11 0 27 4 35 9 13 9 13 10 0 9 -8 0 -24 -4
-35 -9z"/>
<path d="M3735 1685 c33 -16 81 -21 55 -6 -8 5 -31 11 -50 14 l-35 6 30 -14z"/>
<path d="M1375 1670 c-13 -6 -15 -9 -5 -9 8 0 22 4 30 9 18 12 2 12 -25 0z"/>
<path d="M3690 1660 c8 -5 22 -9 30 -9 10 0 8 3 -5 9 -27 12 -43 12 -25 0z"/>
</g>
</svg>
